<svg width="59" height="49" viewBox="0 0 59 49" fill="none" xmlns="http://www.w3.org/2000/svg">
<path d="M3.161 6.322C1.416 6.322 0 4.906 0 3.161C0 1.415 1.416 0 3.161 0H55.841C57.586 0 59.002 1.415 59.002 3.161C59.002 4.906 57.586 6.322 55.841 6.322H3.161Z" fill="black"/>
<path d="M3.162 27.394C1.415 27.394 0 25.979 0 24.232C0 22.487 1.415 21.071 3.161 21.071H55.84C57.585 21.071 59 22.487 59 24.232C59 25.978 57.585 27.393 55.84 27.393L3.162 27.394Z" fill="black"/>
<path d="M3.162 48.4649C1.415 48.4649 0 47.0489 0 45.3029C0 43.5579 1.415 42.1429 3.162 42.1429H55.84C57.586 42.1429 59.002 43.5579 59.002 45.3029C59.002 47.0489 57.586 48.4649 55.84 48.4649H3.162Z" fill="black"/>
</svg>
